<svg xmlns="http://www.w3.org/2000/svg" xmlns:xlink="http://www.w3.org/1999/xlink" viewBox="0 0 65.03 50"><defs><linearGradient id="linear-gradient" x1="-208.83" y1="-247.8" x2="-182.54" y2="-247.8" gradientTransform="matrix(0.44, -0.43, -0.75, -1.13, -75.31, -338)" gradientUnits="userSpaceOnUse"><stop offset="0" stop-color="#08b3e5"/><stop offset="1" stop-color="#2af598"/></linearGradient><linearGradient id="linear-gradient-2" x1="-41.26" y1="-287.75" x2="-14.97" y2="-287.75" gradientTransform="matrix(0.77, -0.15, -0.27, -1.02, -34.24, -274.44)" xlink:href="#linear-gradient"/><linearGradient id="linear-gradient-3" x1="93.78" y1="-287.31" x2="120.07" y2="-287.31" gradientTransform="matrix(1.02, 0.14, 0.25, -0.79, -16.79, -221.52)" xlink:href="#linear-gradient"/><linearGradient id="linear-gradient-4" x1="187.94" y1="-248.33" x2="214.23" y2="-248.33" gradientTransform="matrix(1.15, 0.42, 0.74, -0.46, -27.22, -180.67)" xlink:href="#linear-gradient"/><linearGradient id="linear-gradient-5" x1="223.1" y1="-158.55" x2="249.39" y2="-158.55" gradientTransform="matrix(1.15, 0.66, 1.16, -0.08, -66.17, -152.23)" xlink:href="#linear-gradient"/><linearGradient id="linear-gradient-6" x1="208.23" y1="-54.68" x2="234.53" y2="-54.68" gradientTransform="matrix(1.02, 0.82, 1.44, 0.32, -123.31, -148.6)" xlink:href="#linear-gradient"/><linearGradient id="linear-gradient-7" x1="130.21" y1="74.59" x2="156.49" y2="74.59" gradientTransform="matrix(0.77, 0.89, 1.57, 0.68, -200.18, -162.46)" xlink:href="#linear-gradient"/><linearGradient id="linear-gradient-8" x1="8.48" y1="200.44" x2="34.77" y2="200.44" gradientTransform="matrix(0.43, 0.86, 1.51, 0.97, -280.78, -195.99)" xlink:href="#linear-gradient"/><linearGradient id="linear-gradient-9" x1="-146.85" y1="314.75" x2="-120.56" y2="314.75" gradientTransform="matrix(0.03, 0.73, 1.28, 1.15, -363.63, -245.1)" xlink:href="#linear-gradient"/><linearGradient id="linear-gradient-10" x1="-310.52" y1="400.14" x2="-284.22" y2="400.14" gradientTransform="matrix(-0.37, 0.51, 0.9, 1.2, -431.26, -306.59)" xlink:href="#linear-gradient"/><linearGradient id="linear-gradient-11" x1="-471.89" y1="450.98" x2="-445.59" y2="450.98" gradientTransform="matrix(-0.73, 0.23, 0.41, 1.11, -477.91, -370.15)" xlink:href="#linear-gradient"/><linearGradient id="linear-gradient-12" x1="-611.04" y1="461.86" x2="-584.74" y2="461.86" gradientTransform="matrix(-1.01, -0.07, -0.13, 0.89, -500.11, -424.93)" xlink:href="#linear-gradient"/><linearGradient id="linear-gradient-13" x1="-709.62" y1="426.83" x2="-683.32" y2="426.83" gradientTransform="matrix(-1.18, -0.38, -0.66, 0.57, -496.02, -477.31)" xlink:href="#linear-gradient"/><linearGradient id="linear-gradient-14" x1="-758.11" y1="357.05" x2="-731.81" y2="357.05" gradientTransform="matrix(-1.22, -0.64, -1.12, 0.18, -465.84, -508.45)" xlink:href="#linear-gradient"/><linearGradient id="linear-gradient-15" x1="-752.06" y1="256.24" x2="-725.76" y2="256.24" gradientTransform="matrix(-1.11, -0.83, -1.45, -0.23, -408, -520.9)" xlink:href="#linear-gradient"/><linearGradient id="linear-gradient-16" x1="-695.9" y1="141.45" x2="-669.6" y2="141.45" gradientTransform="matrix(-0.88, -0.92, -1.63, -0.63, -332.44, -505.12)" xlink:href="#linear-gradient"/><linearGradient id="linear-gradient-17" x1="-587.08" y1="17.64" x2="-560.79" y2="17.64" gradientTransform="matrix(-0.54, -0.92, -1.61, -0.95, -248.02, -478.8)" xlink:href="#linear-gradient"/><linearGradient id="linear-gradient-18" x1="-446.84" y1="-94.55" x2="-420.55" y2="-94.55" gradientTransform="matrix(-0.14, -0.8, -1.41, -1.17, -164.65, -426.79)" xlink:href="#linear-gradient"/><linearGradient id="linear-gradient-19" x1="-293.93" y1="-182.83" x2="-267.64" y2="-182.83" gradientTransform="matrix(0.29, -0.59, -1.05, -1.25, -85.13, -366.45)" xlink:href="#linear-gradient"/><linearGradient id="linear-gradient-20" x1="-132.4" y1="-241.4" x2="-106.12" y2="-241.4" gradientTransform="matrix(0.68, -0.32, -0.56, -1.2, -31.56, -301.87)" xlink:href="#linear-gradient"/><linearGradient id="linear-gradient-21" x1="6.7" y1="-260.2" x2="32.99" y2="-260.2" gradientTransform="matrix(1, 0, 0, -1, 0, -238.71)" xlink:href="#linear-gradient"/></defs><g id="Layer_2" data-name="Layer 2"><g id="Layer_1-2" data-name="Layer 1"><g id="Layer_2-2" data-name="Layer 2"><g id="Layer_1-2-2" data-name="Layer 1-2"><path d="M14.61,11.49c3.14-3.06,10.08,1.06,15.47,9.19S37.29,37.91,34.14,41s-10.08-1.06-15.46-9.19-7.21-17.23-4.07-20.29m-.11-.17c-3.18,3.1-1.34,12.28,4.11,20.52s12.46,12.4,15.64,9.3,1.34-12.29-4.11-20.52S17.68,8.22,14.5,11.32Z" style="fill:url(#linear-gradient)"/><path d="M18.32,10c5.52-1.09,11.58,4,13.51,11.27s-1,14.14-6.52,15.23-11.58-4-13.51-11.26,1-14.14,6.52-15.24m0-.14c-5.59,1.11-8.55,8-6.6,15.41s8.07,12.5,13.67,11.39,8.54-8,6.59-15.41S23.87,8.77,18.28,9.88Z" style="fill:url(#linear-gradient-2)"/><path d="M23.62,10.21c7.29,1,11.77,6.42,10,12.06s-9.18,9.38-16.47,8.37-11.76-6.43-10-12.06,9.17-9.39,16.46-8.37m0-.12C16.27,9.06,8.82,12.85,7,18.56S9.71,29.72,17.1,30.75,31.93,28,33.75,22.28,31,11.12,23.66,10.09Z" style="fill:url(#linear-gradient-3)"/><path d="M29.93,12c8.23,3,10.59,8.18,5.26,11.47S18.81,27,10.58,24,0,15.8,5.31,12.51,21.69,9,29.93,12M30,12c-8.35-3.07-19.49-2.85-24.9.49s-3,8.53,5.32,11.6S30,26.9,35.35,23.57,38.37,15,30,12Z" style="fill:url(#linear-gradient-4)"/><path d="M36.52,15.3c8.24,4.72,8.2,9-.11,9.56S14.64,22,6.4,17.31s-8.2-9,.11-9.56,21.77,2.83,30,7.55m.17,0c-8.35-4.78-21.94-8.2-30.35-7.65s-8.46,4.9-.11,9.68S28.17,25.51,36.58,25s8.46-4.89.11-9.67Z" style="fill:url(#linear-gradient-5)"/><path d="M42.65,19.66c7.3,5.87,4.82,8.81-5.52,6.53s-24.71-8.92-32-14.8S.29,2.58,10.63,4.86s24.71,8.92,32,14.8m.21,0C35.46,13.75,21,7.06,10.48,4.74s-13,.65-5.58,6.61S26.79,24,37.28,26.31s13-.65,5.58-6.61Z" style="fill:url(#linear-gradient-6)"/><path d="M47.59,24.61c5.52,6.37.87,7.59-10.35,2.72S12.41,13.29,6.9,6.92,6-.67,17.25,4.2s24.82,14,30.34,20.41m.23.1C42.24,18.24,28.5,9,17.13,4.07S1.08.36,6.67,6.82,26,22.52,37.36,27.46,53.41,31.17,47.82,24.71Z" style="fill:url(#linear-gradient-7)"/><path d="M50.78,29.59c3.07,6.14-3.23,5.49-14-1.45S14.64,10.56,11.57,4.41s3.23-5.49,14,1.45,22.1,17.59,25.17,23.73m.22.15c-3.11-6.23-14.51-17-25.46-24S8.24-1.95,11.35,4.27s14.5,17,25.45,24S54.11,36,51,29.74Z" style="fill:url(#linear-gradient-8)"/><path d="M51.82,34c.25,5.2-7,2.74-16.15-5.48S18.87,9.4,18.63,4.2s7-2.74,16.14,5.49,16.8,19.14,17,24.34m.19.17c-.25-5.26-8-16.29-17.24-24.62S18.19-1.24,18.44,4s8,16.29,17.24,24.62S52.26,39.47,52,34.2Z" style="fill:url(#linear-gradient-9)"/><path d="M50.58,37.42c-2.63,3.65-10-.36-16.42-8.94S24.65,10,27.28,6.3s10,.36,16.42,8.94,9.51,18.53,6.88,22.18m.13.18c2.66-3.7-.45-13.74-7-22.43s-13.94-12.74-16.6-9,.45,13.74,7,22.43,13.94,12.73,16.6,9Z" style="fill:url(#linear-gradient-10)"/><path d="M47.17,39.34C41.93,41,35.29,35.9,32.36,28s-1.05-15.77,4.18-17.43S48.42,14,51.35,21.91s1,15.77-4.18,17.43m.06.17c5.3-1.69,7.2-9.58,4.23-17.63s-9.67-13.21-15-11.52S29.29,19.93,32.26,28s9.67,13.21,15,11.53Z" style="fill:url(#linear-gradient-11)"/><path d="M42,39.57C34.7,39,29.56,33.4,30.49,27s7.62-11.16,14.88-10.63S57.78,22.55,56.84,29,49.23,40.11,42,39.57m0,.14C49.3,40.24,56,35.43,57,29S52.75,16.79,45.38,16.25,31.29,20.52,30.34,27,34.58,39.16,42,39.71Z" style="fill:url(#linear-gradient-12)"/><path d="M35.55,38.07c-8.48-2.7-11.52-8.21-6.78-12.3s15.48-5.23,24-2.54,11.52,8.21,6.78,12.3-15.49,5.23-24,2.54m-.1.08c8.58,2.73,19.44,1.58,24.24-2.56s1.72-9.71-6.86-12.44-19.44-1.58-24.24,2.56-1.73,9.71,6.86,12.44Z" style="fill:url(#linear-gradient-13)"/><path d="M28.64,35c-8.72-4.57-9.29-9.33-1.26-10.62S49,25.73,57.76,30.29s9.3,9.33,1.27,10.62S37.36,39.54,28.64,35m-.16,0c8.83,4.62,22.59,7.31,30.72,6s7.56-6.11-1.28-10.74-22.59-7.3-30.72-6S19.63,30.38,28.47,35Z" style="fill:url(#linear-gradient-14)"/><path d="M22,30.64c-8-5.92-6-9.38,4.46-7.69s25.4,7.87,33.37,13.8,6,9.38-4.45,7.69S30,36.57,22,30.64m-.21,0c8.08,6,23.19,12.25,33.75,14s12.58-1.78,4.51-7.78-23.19-12.25-33.76-14-12.58,1.78-4.5,7.79Z" style="fill:url(#linear-gradient-15)"/><path d="M16.49,25.55c-6.29-6.62-1.93-8.35,9.72-3.85S52.47,35.24,58.76,41.86s1.94,8.35-9.71,3.85S22.79,32.18,16.49,25.55m-.24-.09c6.38,6.71,21.12,15.84,32.93,20.39S65.38,48.66,59,42,37.89,26.11,26.08,21.56,9.88,18.75,16.25,25.46Z" style="fill:url(#linear-gradient-16)"/><path d="M12.67,20.28c-3.88-6.57,2.36-6.36,13.91.46s24.1,17.71,28,24.27-2.36,6.36-13.91-.46-24.1-17.7-28-24.27m-.24-.14c3.93,6.64,16.6,17.63,28.3,24.54s18,7.11,14.07.47S38.2,27.52,26.5,20.61s-18-7.11-14.07-.47Z" style="fill:url(#linear-gradient-17)"/><path d="M11,15.44c-1-5.74,6.43-3.61,16.55,4.77S46.71,40.09,47.7,45.84s-6.43,3.6-16.55-4.78S12,21.19,11,15.44m-.21-.17c1,5.82,10.12,17.42,20.36,25.91S48.91,51.83,47.92,46,37.8,28.58,27.55,20.1,9.81,9.45,10.81,15.27Z" style="fill:url(#linear-gradient-18)"/><path d="M11.74,11.59c2-4.26,9.81-.42,17.31,8.57s12,19.78,9.9,24-9.81.42-17.31-8.58-12-19.77-9.9-24m-.14-.19c-2.08,4.32,2.4,15.2,10,24.31S37,48.7,39.1,44.39s-2.41-15.21-10-24.31-15.43-13-17.5-8.68Z" style="fill:url(#linear-gradient-19)"/><path d="M14.79,9.17C19.67,6.9,26.88,12,30.88,20.61S34.17,38,29.3,40.28,17.21,37.42,13.21,28.85,9.92,11.45,14.79,9.17M14.71,9c-4.93,2.3-5.65,11.21-1.6,19.89S24.45,42.75,29.38,40.45,35,29.25,31,20.56,19.65,6.7,14.71,9Z" style="fill:url(#linear-gradient-20)"/><path d="M19.84,8.49a13,13,0,1,1-13,13,13,13,0,0,1,13-13m0-.14A13.15,13.15,0,1,0,33,21.49,13.14,13.14,0,0,0,19.84,8.35Z" style="fill:url(#linear-gradient-21)"/><path d="M22,20.62H17V33.4H11.87V20.62h-5V16.41H22Z"/><path d="M33,21a5.7,5.7,0,0,0-1.57.94,5.11,5.11,0,0,0-1.13,1.32,2.85,2.85,0,0,0-.44,1.5v.29a2.85,2.85,0,0,0,.44,1.5,5.28,5.28,0,0,0,1.13,1.32A5.66,5.66,0,0,0,33,28.8a4.71,4.71,0,0,0,1.81.36h5.14V33.4H35a11,11,0,0,1-3.9-.69,11.17,11.17,0,0,1-3.27-1.86,9.22,9.22,0,0,1-2.24-2.69,6.6,6.6,0,0,1,0-6.47A9.48,9.48,0,0,1,27.82,19a11.1,11.1,0,0,1,3.27-1.88A11.24,11.24,0,0,1,35,16.4h4.92v4.24H34.77A5.12,5.12,0,0,0,33,21Z"/><path d="M42.79,29.16H43a4.75,4.75,0,0,0,1.67-.31A6.52,6.52,0,0,0,46.22,28a5,5,0,0,0,1.14-1.19,3.08,3.08,0,0,0,.57-1.37v-.52a6.75,6.75,0,0,1,.84-3.25A9.32,9.32,0,0,1,51,19a11.15,11.15,0,0,1,3.26-1.87,10.82,10.82,0,0,1,3.89-.69v4.24H58a4.81,4.81,0,0,0-1.68.31,5.85,5.85,0,0,0-1.51.83A5.32,5.32,0,0,0,53.62,23a3.3,3.3,0,0,0-.57,1.38v.51a6.69,6.69,0,0,1-.83,3.25A9.35,9.35,0,0,1,50,30.83,11.33,11.33,0,0,1,42.8,33.4Z"/></g></g></g></g></svg>